<svg xmlns="http://www.w3.org/2000/svg" width="160" height="220" viewBox="0 0 160 220" shape-rendering="crispEdges"><title>Avery North 16-bit full-body lore portrait</title><g stroke="#07100f" stroke-width="4"><path fill="#243f45" d="M51 67h58l-8 48 17 77H42l17-77z"/><path fill="#416970" d="M57 56l23-29 23 29-10 16H67z"/><path fill="#d1ad7b" d="M63 68h34v34H63z"/><path fill="#2f5760" d="M43 126h31v68H42zM86 126h31l1 68H87z"/><path fill="#d7bc76" d="M41 113h78v13H41z"/><path fill="#35c9b8" d="M25 77h28v24H25z"/><path fill="#07100f" d="M31 83h16v12H31z"/><path fill="#d68a45" d="M112 76h26v12h-26zM122 88h7v95h-7z"/></g></svg>