<svg xmlns="http://www.w3.org/2000/svg" viewBox="0 0 360 360"><title>Illustrated portrait of Bram Gatewick</title><rect width="360" height="360" fill="#070d0c"/><circle cx="180" cy="170" r="119" fill="#29312d"/><path d="M50 360c22-91 73-126 130-126s108 35 130 126" fill="#373b39"/><ellipse cx="180" cy="157" rx="70" ry="84" fill="#c89470"/><path d="M104 138c5-69 33-106 77-106 47 0 74 38 75 106-25-26-51-39-77-39-24 0-49 13-75 39" fill="#242321"/><path d="M117 207q63 43 126 0c-15 45-36 67-63 67-27 0-48-22-63-67" fill="#242321"/><circle cx="154" cy="157" r="5" fill="#101c19"/><circle cx="207" cy="157" r="5" fill="#101c19"/><path d="M153 187q27 8 54 0" fill="none" stroke="#74483c" stroke-width="4"/><path d="M139 281h82v52h-82z" fill="#35c9b8"/><path d="M153 306l15 15 39-39" fill="none" stroke="#102522" stroke-width="7" stroke-linecap="round" stroke-linejoin="round"/></svg>