<svg xmlns="http://www.w3.org/2000/svg" viewBox="0 0 360 360"><title>Illustrated portrait of The Marquee Director</title><rect width="360" height="360" fill="#090b0c"/><circle cx="180" cy="170" r="120" fill="#2b1e26"/><path d="M52 360c21-88 73-124 128-124s107 36 128 124" fill="#151d22"/><ellipse cx="180" cy="157" rx="68" ry="83" fill="#c98d6f"/><path d="M105 141c2-70 31-109 76-109 47 0 76 39 75 110-26-28-51-43-77-43-25 0-50 14-74 42" fill="#161616"/><circle cx="154" cy="158" r="5" fill="#101718"/><circle cx="207" cy="158" r="5" fill="#101718"/><path d="M154 197q26 12 52 0" fill="none" stroke="#713f36" stroke-width="4"/><path d="M105 72h150l-24-31H129z" fill="#101314" stroke="#c89446" stroke-width="4"/><path d="M119 276h122v47H119z" fill="#c89446"/><path d="M137 276l20 47m22-47 20 47m20-47 20 47" stroke="#151d22" stroke-width="7"/></svg>