<svg xmlns="http://www.w3.org/2000/svg" viewBox="0 0 360 360"><title>Illustrated portrait of Master Oaken-Vague</title><rect width="360" height="360" fill="#070d0b"/><circle cx="180" cy="172" r="119" fill="#233425"/><path d="M55 360c22-91 72-126 125-126 55 0 105 35 125 126" fill="#324a2f"/><ellipse cx="180" cy="154" rx="69" ry="83" fill="#c79b78"/><path d="M103 145c3-72 31-111 78-111 45 0 75 33 78 103-31-25-59-38-84-38-27 0-51 15-72 46" fill="#d0c4a6"/><path d="M119 208q61 78 122 0c-15 66-37 98-61 98-25 0-46-32-61-98" fill="#c8bea5"/><circle cx="153" cy="156" r="5" fill="#15231d"/><circle cx="207" cy="156" r="5" fill="#15231d"/><path d="M151 183q29 12 58 0" fill="none" stroke="#765347" stroke-width="4"/><path d="M83 86l97-61 98 61-35-8-20 21-43-12-43 12-20-21z" fill="#684c2c"/><circle cx="180" cy="280" r="12" fill="#c89446"/></svg>